<svg width="216" height="140" viewBox="0 0 216 140" fill="none" xmlns="http://www.w3.org/2000/svg">
<rect y="76" width="64" height="64" rx="12" fill="black"/>
<path d="M35.5 115C35.5 115 28.5 110.856 28.5 108C28.5 105.145 35.5 101 35.5 101" stroke="white" stroke-width="1.5" stroke-linecap="round" stroke-linejoin="round"/>
<rect x="76" width="64" height="64" rx="12" fill="black"/>
<path d="M101 35.5C101 35.5 105.144 28.5 108 28.5C110.855 28.5 115 35.5 115 35.5" stroke="white" stroke-width="1.5" stroke-linecap="round" stroke-linejoin="round"/>
<rect x="152" y="76" width="64" height="64" rx="12" fill="black"/>
<path d="M180.5 101C180.5 101 187.5 105.144 187.5 108C187.5 110.855 180.5 115 180.5 115" stroke="white" stroke-width="1.5" stroke-linecap="round" stroke-linejoin="round"/>
<rect x="76" y="76" width="64" height="64" rx="12" fill="black"/>
<path d="M115 104.5C115 104.5 110.856 111.5 108 111.5C105.145 111.5 101 104.5 101 104.5" stroke="white" stroke-width="1.5" stroke-linecap="round" stroke-linejoin="round"/>
</svg>
