<svg width="166" height="166" viewBox="0 0 166 166" fill="none" xmlns="http://www.w3.org/2000/svg">
<path d="M121.899 105.464C121.491 103.002 122.314 100.491 124.106 98.755L149.974 74.27C152.104 72.2711 152.886 69.2278 151.98 66.4542C151.018 63.6875 148.591 61.6817 145.686 61.2667L117.467 57.1729L94.6692 83.7076L102.669 95.7076L57.7787 142.38L79.0089 131.256C79.5899 130.938 80.2262 130.731 80.8764 130.634H82.7508C83.9612 130.669 85.144 130.973 86.2091 131.54L116.843 147.518C119.423 148.901 122.57 148.693 124.936 146.964C127.349 145.297 128.567 142.378 128.048 139.494L121.899 105.464Z" fill="#ED6355"/>
<path d="M50.4087 146.241L48.3681 147.31C46.8533 148.071 45.138 148.341 43.4572 148.071C39.3626 147.296 36.6305 143.395 37.3014 139.28L43.4572 105.25C43.8653 102.767 43.0422 100.242 41.2508 98.4783L16.2747 74.27C14.1859 72.2434 13.4596 69.2001 14.4141 66.4542C15.341 63.7152 17.7065 61.7163 20.5631 61.2667L54.9389 56.2798C57.5534 56.01 59.8497 54.4192 61.0256 52.0675L76.1731 21.0117C76.5327 20.32 76.9961 19.6837 77.5564 19.1442L78.1789 18.66C78.504 18.3003 78.8775 18.0029 79.2925 17.7608L80.0464 17.4842L81.2222 17H84.1341C86.7348 17.2698 89.0242 18.826 90.2208 21.15L103.524 47.949L79.6692 87.7076L86.6692 95.7076L50.4087 146.241Z" fill="#ED6355"/>
</svg>
