<svg width="166" height="166" viewBox="0 0 166 166" fill="none" xmlns="http://www.w3.org/2000/svg">
<path d="M123.936 99.0474C122.145 100.783 121.322 103.294 121.73 105.757L127.879 139.787C128.398 142.671 127.18 145.59 124.766 147.257C122.401 148.986 119.254 149.193 116.674 147.81L86.04 131.832C84.9748 131.265 83.792 130.961 82.5816 130.926H80.7072C80.057 131.023 79.4207 131.231 78.8397 131.549L48.1989 147.602C46.6841 148.363 44.9688 148.633 43.288 148.363C39.1934 147.589 36.4613 143.688 37.1322 139.572L43.288 105.542C43.6961 103.059 42.873 100.534 41.0816 98.7707L16.1055 74.5624C14.0167 72.5358 13.2905 69.4924 14.245 66.7465C15.1718 64.0075 17.5373 62.0086 20.3939 61.559L54.7697 56.5721C57.3842 56.3024 59.6805 54.7115 60.8564 52.3599L76.0039 21.304C76.3635 20.6124 76.827 19.976 77.3872 19.4365L78.0097 18.9524C78.3348 18.5927 78.7083 18.2953 79.1233 18.0532L79.8772 17.7765L81.053 17.2924H83.965C86.5656 17.5621 88.855 19.1184 90.0516 21.4424L105.4 52.3599C106.506 54.6216 108.657 56.1917 111.141 56.5721L145.516 61.559C148.421 61.974 150.849 63.9799 151.811 66.7465C152.717 69.5201 151.935 72.5634 149.805 74.5624L123.936 99.0474Z" fill="#FFCF73"/>
</svg>
